<svg width="20" height="20" viewBox="7 7 20 20" fill="none" xmlns="http://www.w3.org/2000/svg">
<path d="M11.4771 22.9218C10.2175 21.7653 10.1337 19.8013 11.2901 18.5417L13.9953 15.5952L12.5958 14.3102L9.89054 17.2567C8.02395 19.2898 8.15907 22.4548 10.1922 24.3214C12.2252 26.188 15.3902 26.0528 17.2568 24.0198L19.962 21.0733L18.5624 19.7883L15.8572 22.7348C14.7007 23.9944 12.7368 24.0783 11.4771 22.9218ZM14.9866 20.5779L20.397 14.6849L18.9238 13.3323L13.5133 19.2253L14.9866 20.5779ZM16.6536 9.89049L13.9484 12.837L15.3479 14.122L18.0532 11.1755C19.2096 9.91583 21.1736 9.83199 22.4332 10.9885C23.6929 12.1449 23.7767 14.1089 22.6202 15.3685L19.915 18.315L21.3146 19.6L24.0198 16.6535C25.8864 14.6204 25.7513 11.4555 23.7182 9.58888C21.6851 7.72228 18.5202 7.8574 16.6536 9.89049Z" fill="#323232"/>
</svg>
